<?xml version="1.0" encoding="utf-8"?>
<!-- Generator: Adobe Illustrator 27.8.1, SVG Export Plug-In . SVG Version: 6.00 Build 0)  -->
<svg version="1.1" id="Capa_1" xmlns="http://www.w3.org/2000/svg" xmlns:xlink="http://www.w3.org/1999/xlink" x="0px" y="0px"
	 viewBox="0 0 2113.3 700" style="enable-background:new 0 0 2113.3 700;" xml:space="preserve">
<style type="text/css">
	.st0{fill:#212721;}
</style>
<g>
	<g>
		<path class="st0" d="M752,315.7H644.2L539.2,132.3l0.9,183.3h-93V0h106l106.9,183.8L658.5,0H752V315.7z"/>
		<path class="st0" d="M1051.1,200.3c0,33.1-10,60.8-30,83.2c-24.7,27.4-60.8,41.1-108.2,41.1c-36.4,0-66-9.1-89-27.3
			c-28.6-22.6-42.9-54.5-42.9-95.7c0-35.5,10.6-64.7,31.7-87.6c24.7-26.8,59.8-40.1,105.1-39.8c39,0,70.5,10.4,94.3,31.3
			c12.5,11,22.1,25.1,28.8,42.2C1047.7,164.9,1051.1,182.4,1051.1,200.3z M958.1,198.1c0-31.3-9.2-50.2-27.7-56.8
			c-4.5-1.5-9.5-2.2-15.2-2.2c-11.9,0.3-21.6,4.6-29.1,13c-8.9,9.5-13.4,25.2-13.4,46.9c0,20.3,3.9,35.8,11.6,46.5
			c3.9,5.1,8.5,8.8,13.9,11.2c4.2,2.1,10,3.1,17.4,3.1c11.6,0,20.9-3.4,27.7-10.3C953.2,239.7,958.1,222.5,958.1,198.1z"/>
		<path class="st0" d="M1311.8,84.1l-76.9,231.6h-97.9l-77.3-231.6h97.5l28.2,143.1l30-143.1H1311.8z"/>
		<path class="st0" d="M1571.5,315.7h-90.8v-17.9c-6,4.5-11.6,8-17,10.7c-16.7,8.3-36.7,12.5-59.9,12.5c-14.3,0-26.7-1.9-37.1-5.8
			c-14.9-5.7-26.3-14.6-34.2-26.8c-7.9-12.2-11.9-26.2-11.9-42c0-25.6,10.6-45.6,31.7-59.9c12.5-8.3,34.6-14.8,66.2-19.2
			c19.1-2.7,32.3-4.8,39.8-6.3c8.9-2.1,14.9-3.6,17.9-4.5c0-4.8-0.5-8.3-1.3-10.7c-3-10.7-13-16.1-30-16.1c-4.5,0-8.9,0.4-13.4,1.3
			c-2.1,0.6-3.9,1.3-5.4,2c-1.5,0.7-2.8,1.7-4,2.9c-1.2,1.2-2.2,2.2-2.9,3.1c-0.8,0.9-1.4,2.1-2,3.6c-0.6,1.5-1,2.6-1.3,3.4
			c-0.3,0.7-0.6,1.8-0.9,3.1c-0.3,1.3-0.4,2.2-0.4,2.5l-86.3,2.2c0.3-1.8,0.8-4.2,1.6-7.4c0.7-3.1,1.3-5.3,1.6-6.5
			c4.2-16.1,12.7-29.2,25.5-39.3c20.6-16.1,52.8-24.1,96.6-24.1c55.1,0,89.6,14.5,103.3,43.4c4.5,9.2,6.7,23,6.7,41.1V287
			c0,8,0.5,13.7,1.6,17C1566.1,307.3,1568.3,311.2,1571.5,315.7z M1475.9,207.9c-11.6,3.9-23.2,7.4-34.9,10.7
			c-15.8,3.6-26.1,8.4-30.9,14.3c-2.7,3.9-4,7.5-4,10.7c0,4.5,1.9,8.6,5.6,12.3c3.7,3.7,9.5,5.6,17.2,5.6c6.6,0,14-2.1,22.4-6.3
			c6-3.3,10.8-7,14.5-11.2c3.7-4.2,6.3-8.9,7.6-14.3c1.3-5.4,2.1-9.2,2.2-11.4C1475.8,216.2,1475.9,212.7,1475.9,207.9z"/>
	</g>
	<g>
		<path class="st0" d="M1094.4,690.6H993.8V569h-95.2v121.6h-99.7V375h99.7v114.9h95.2V375h100.6V690.6z"/>
		<path class="st0" d="M1393.5,575.3c0,33.1-10,60.8-30,83.2c-24.7,27.4-60.8,41.1-108.2,41.1c-36.4,0-66-9.1-89-27.3
			c-28.6-22.6-42.9-54.5-42.9-95.7c0-35.5,10.6-64.7,31.7-87.6c24.7-26.8,59.8-40.1,105.1-39.8c39,0,70.5,10.4,94.3,31.3
			c12.5,11,22.1,25.1,28.8,42.2C1390.1,539.9,1393.5,557.4,1393.5,575.3z M1300.5,573c0-31.3-9.2-50.2-27.7-56.8
			c-4.5-1.5-9.5-2.2-15.2-2.2c-11.9,0.3-21.6,4.6-29.1,13c-8.9,9.5-13.4,25.2-13.4,46.9c0,20.3,3.9,35.8,11.6,46.5
			c3.9,5.1,8.5,8.8,13.9,11.2c4.2,2.1,10,3.1,17.4,3.1c11.6,0,20.9-3.4,27.7-10.3C1295.6,614.6,1300.5,597.5,1300.5,573z"/>
		<path class="st0" d="M1830.3,690.6h-92.1V569.4c0-0.3,0-0.9,0-1.8c0.3-25.6-10.4-38.5-32.2-38.5c-17.3,0-28,7.5-32.2,22.4
			c-0.9,3.6-1.3,8.8-1.3,15.7v123.4h-92.1V565.4c0-6-0.4-10.7-1.3-14.3c-3.9-14.6-14.2-21.9-30.8-21.9c-16.4,0-27,7.2-31.7,21.5
			c-1.5,4.5-2.2,9.2-2.2,14.3v125.6h-92.6V459h89v33.1c4.5-7.7,8.6-13.6,12.5-17.4c14.6-14,34.7-21,60.4-21c31,0,53.9,8.3,68.9,25
			c2.7,2.7,6.6,8.6,11.6,17.9c2.7-6.3,6.7-12.1,12.1-17.4c16.7-17.3,39.2-25.8,67.5-25.5c11.9,0,22.1,1.2,30.4,3.6
			c26.5,7.2,43.8,22.8,51.9,47c3,8.9,4.5,22.4,4.5,40.2V690.6z"/>
		<path class="st0" d="M2113.3,591.4h-161.4c0,7.2,0.7,13.1,2.2,17.9c6,17.3,18.2,25.8,36.7,25.5c11,0,19.8-3,26.4-8.9
			c4.5-3.6,9.7-10.6,15.7-21l75.6,31.7c-4.2,6.9-7.9,12.1-11.2,15.7c-11.9,13.7-26.1,24.7-42.5,33.1c-20.6,9.8-43.4,14.8-68.4,14.8
			c-20.6,0-38.9-3.3-55-9.8c-23.3-9.5-41.3-24.9-54.1-46.1c-12.8-21.2-19.2-44.7-19.2-70.6c0-37.6,11.8-67.7,35.3-90.3
			c23.5-22.6,54.2-34,92.1-34c40.5,0,72.7,12.8,96.6,38.5c11.3,12.2,19.5,26.5,24.6,42.9C2111.1,544.9,2113.3,565.1,2113.3,591.4z
			 M2019.9,542.6c-1.5-8.3-2.2-12.7-2.2-13c-4.8-14.6-14.9-21.9-30.4-21.9c-5.4,0.3-10.1,1.5-14.3,3.6
			c-10.4,4.8-17.1,15.2-20.1,31.3H2019.9z"/>
	</g>
	<g>
		<path class="st0" d="M172.7,315.7c95.4,0,172.7-77.3,172.7-172.7H0C0,238.4,77.3,315.7,172.7,315.7z"/>
		<path class="st0" d="M172.7,127.3c66.5,0,120.5-53.9,120.5-120.5H52.2C52.2,73.3,106.1,127.3,172.7,127.3z"/>
	</g>
</g>
</svg>
