<?xml version="1.0" encoding="utf-8"?>
<!-- Generator: Adobe Illustrator 27.8.1, SVG Export Plug-In . SVG Version: 6.00 Build 0)  -->
<svg version="1.1" id="Capa_1" xmlns="http://www.w3.org/2000/svg" xmlns:xlink="http://www.w3.org/1999/xlink" x="0px" y="0px"
	 viewBox="0 0 600 600" style="enable-background:new 0 0 600 600;" xml:space="preserve">
<style type="text/css">
	.st0{fill:#FFFFFF;}
</style>
<path class="st0" d="M301,5.5c163.3-0.2,295.9,132.1,295.9,295.1c0,163-132.6,295.3-295.8,295.2C138,595.8,5.8,463.9,5.5,301.1
	C5.2,138.2,137.6,5.7,301,5.5z M275.2,261.3c-5.7,0-11.1-0.1-16.6,0c-65.3,0.8-112.2,58.9-99.4,122.9c9.8,49.1,55.9,83.6,107.3,80.4
	c49.2-3,91.6-44.2,93.6-93.5c1.6-39.3,0.6-78.7,0.7-118c0-2.5,0-5.1,0-7c13.8,6.2,26.8,12.9,40.3,18.1c13.8,5.3,28.4,8,43.8,7.8
	c0-12.7,0.1-24.5,0-36.3c0-5,1.4-11.3-1-14.6c-2-2.8-8.8-2.2-13.4-3.1c-33.9-6.8-57-25.4-65.6-59.8c-1.7-6.9-3.1-14-4.7-21.1
	c-17.1,0-34.1,0-51.9,0c0,3.1,0,5.9,0,8.7c0,70,0,139.9,0,209.9c0,3.7,0,7.4-0.3,11.1c-2.1,27-24.6,46.6-52.1,45.5
	c-25.5-1.1-46.7-23.8-46.4-49.6c0.3-26.6,21.7-48.2,48.5-48.8c5.6-0.1,11.3,0,17.2,0C275.2,295.9,275.2,279,275.2,261.3z"/>
</svg>
